# xmcd
#
# Track frame offsets:
#	150
#	17330
#	33490
#	48057
#	62392
#	76657
#	91127
#	109505
#	125542
#
# Disc length: 1906 seconds
#
# Revision: 6
# Processed by: cddbd v1.5.2PL0 Copyright (c) Steve Scherf et al.
# Submitted via: audiograbber 1.83.01
#
DISCID=56077009
DTITLE=Various Artist - New Country - Holiday Special 1995
DYEAR=1995
DGENRE=Country
TTITLE0=Country Mountain Christmas - Jingle Bells
TTITLE1=Toby Keith - All I Want For Christmas
TTITLE2=Joe Diffie - Wrap Me In Your Love
TTITLE3=Country Gentlemen - Christmas Time Back Home
TTITLE4=An Americana Christmas - God Rest Ye Merry Gentlemen
TTITLE5=Kathy Mattea - Mary, Did You Know?
TTITLE6=Tanya Tucker - What Child Is This
TTITLE7=Tony Trischka - Precious Child
TTITLE8=Oak Ridge Boys - Manger Medley
EXTD=
EXTT0=
EXTT1=
EXTT2=
EXTT3=
EXTT4=
EXTT5=
EXTT6=
EXTT7=
EXTT8=
PLAYORDER=
